# xmcd CD database file
#
# Track frame offsets:
#	150
#	20687
#	41160
#	60537
#	83412
#	99597
#	121835
#	140422
#	163137
#	185107
#
# Disc length: 2727 seconds
#
# Revision: 0
# Processed by: cddbd v1.5.1PL0 Copyright (c) Steve Scherf et al.
# Submitted via: CDex 1.51
#
DISCID=840aa50a
DTITLE=Bill Coday - Can't Get Enough
DYEAR=1900
DGENRE=Blues
TTITLE0=In The Room Next To The Room
TTITLE1=Not A Word
TTITLE2=Can't Get Enough
TTITLE3=That's When The Blues Began
TTITLE4=Ace Of Spades
TTITLE5=Come On
TTITLE6=It's A Blues Thang
TTITLE7=That's How Strong My Love Is
TTITLE8=Get It While The Gettin' Is Good
TTITLE9=Bring Your Lunch
EXTD=
EXTT0=
EXTT1=
EXTT2=
EXTT3=
EXTT4=
EXTT5=
EXTT6=
EXTT7=
EXTT8=
EXTT9=
PLAYORDER=
